<svg xmlns:xlink="http://www.w3.org/1999/xlink" xmlns="http://www.w3.org/2000/svg" width="56" height="41" fill="white" viewBox="0 0 56 41" class="z-10 relative" data-v-2cc9919d=""><path fill-rule="evenodd" clip-rule="evenodd" d="M13.4321 1.35822C13.4321 1.77906 13.7372 2.13782 14.1526 2.20532L15.2421 2.38235C15.9132 2.46078 16.3117 2.61765 16.4375 2.85294C16.5634 3.08823 16.6263 3.89216 16.6263 5.2647V19.7037H6.94407C6.8374 18.779 6.05838 18.0613 5.11322 18.0613C4.09519 18.0613 3.26992 18.8939 3.26992 19.921C3.26992 20.9481 4.09519 21.7807 5.11322 21.7807C6.05862 21.7807 6.83779 21.0627 6.94415 20.1376H16.6263V35.7353C16.6263 37.1078 16.5634 37.9118 16.4375 38.1471C16.3117 38.3824 15.9132 38.5392 15.2421 38.6176L14.1101 38.8384C13.7163 38.9152 13.4321 39.2602 13.4321 39.6614C13.4321 40.1246 13.8075 40.5 14.2706 40.5H32.1844C32.7042 40.5 33.1256 40.0786 33.1256 39.5588C33.1256 39.039 32.7042 38.6176 32.1844 38.6176H22.46C21.9212 38.6176 21.4844 38.1808 21.4844 37.642V21.0882V19.2059V3.358C21.4844 2.81916 21.9212 2.38235 22.46 2.38235H25.5787C26.0985 2.38235 26.5199 1.96097 26.5199 1.44118C26.5199 0.921379 26.0985 0.5 25.5787 0.5H14.2903C13.8163 0.5 13.4321 0.884236 13.4321 1.35822ZM38.6318 3.20588C36.5765 1.40196 33.4934 0.5 29.3827 0.5H28.4643C27.9445 0.5 27.5231 0.921379 27.5231 1.44118C27.5231 1.96097 27.9445 2.38235 28.4643 2.38235H29.3827C33.7451 2.38235 36.5658 4.81372 36.5658 9.67647V12.0882C36.5658 16.8227 32.9192 19.1953 27.4067 19.2058C27.3823 19.2059 27.357 19.2076 27.3329 19.212C26.2854 19.404 26.2045 20.876 27.3321 21.0819C27.3566 21.0864 27.3821 21.0882 27.407 21.0882H30.9557C33.2208 21.0882 34.9196 21.7353 36.0522 23.0294C37.2266 24.3235 38.4534 26.1863 38.4534 28.6176V31.0294C38.4534 34.6409 36.9624 36.9632 34.4458 37.9965C33.9631 38.1947 33.6522 38.6962 33.7663 39.2054L33.8195 39.443C33.9299 39.9357 34.399 40.266 34.8958 40.1758C37.1818 39.7608 39.0144 38.9473 40.3936 37.7353C42.5328 35.8922 43.6024 33.5392 43.6024 30.6765V29.0882C43.6024 26.6569 42.7845 24.6373 41.1486 23.0294C39.7372 21.6422 37.8418 20.6783 35.4625 20.1376H48.9324C48.9264 20.1986 48.9233 20.2605 48.9233 20.3231C48.9233 21.3354 49.7249 22.1587 50.7226 22.1823C49.2526 25.7214 48.1202 27.687 45.7995 30.7321C45.745 30.8036 45.7952 30.9078 45.8851 30.9078H55.8933C55.9828 30.9078 56.0331 30.8046 55.9795 30.733C53.6755 27.6533 52.5231 25.7065 51.0453 22.1617C51.9311 22.0262 52.6099 21.2546 52.6099 20.3231C52.6099 19.296 51.7846 18.4634 50.7666 18.4634C49.9638 18.4634 49.2809 18.9811 49.028 19.7037H35.2368C37.4984 19.1195 38.6141 18.1364 39.7644 16.8529C41.0647 15.402 41.7149 13.6569 41.7149 11.6176V10.0294C41.7149 7.2451 40.6872 4.97059 38.6318 3.20588ZM5.00995 22.6463C5.04698 22.5566 5.17523 22.5565 5.21238 22.6462C6.71735 26.2768 7.86958 28.2336 10.2026 31.3521C10.2561 31.4237 10.2059 31.5269 10.1164 31.5269H0.10817C0.0182527 31.5269 -0.0319028 31.4228 0.0225991 31.3513C2.37694 28.2619 3.50827 26.2837 5.00995 22.6463Z" data-v-2cc9919d="" fill="#FFFFFF"></path></svg>