<svg xmlns:xlink="http://www.w3.org/1999/xlink" xmlns="http://www.w3.org/2000/svg" width="40" height="40" viewBox="0 0 40 40" fill="none" data-v-77aa7137=""><path d="M22.6465 25.549L30.6417 16.1763" stroke="#2454E9" stroke-width="2.5px" stroke-linecap="round" stroke-linejoin="round" data-v-77aa7137="" fill="none"></path><path d="M23.3446 18.4C24.2834 18.4 25.0445 17.6389 25.0445 16.7C25.0445 15.7611 24.2834 15 23.3446 15C22.4057 15 21.6445 15.7611 21.6445 16.7C21.6445 17.6389 22.4057 18.4 23.3446 18.4Z" fill="#2454E9" data-v-77aa7137=""></path><path d="M30.0105 26.6002C30.9494 26.6002 31.7105 25.8391 31.7105 24.9002C31.7105 23.9613 30.9494 23.2002 30.0105 23.2002C29.0716 23.2002 28.3105 23.9613 28.3105 24.9002C28.3105 25.8391 29.0716 26.6002 30.0105 26.6002Z" fill="#2454E9" data-v-77aa7137=""></path><path d="M20.0007 36.6668C29.2054 36.6668 36.6673 29.2049 36.6673 20.0002C36.6673 10.7954 29.2054 3.3335 20.0007 3.3335C10.7959 3.3335 3.33398 10.7954 3.33398 20.0002C3.33398 29.2049 10.7959 36.6668 20.0007 36.6668Z" stroke="#2454E9" stroke-width="2.5px" stroke-linecap="round" stroke-linejoin="round" data-v-77aa7137="" fill="none"></path><path d="M14.0305 27.6535C12.9372 27.6535 11.9572 27.3735 11.0905 26.8135C10.2372 26.2535 9.55721 25.4402 9.05055 24.3735C8.55721 23.3068 8.31055 22.0135 8.31055 20.4935C8.31055 18.9735 8.55721 17.6802 9.05055 16.6135C9.55721 15.5468 10.2372 14.7335 11.0905 14.1735C11.9572 13.6135 12.9372 13.3335 14.0305 13.3335C15.1105 13.3335 16.0839 13.6135 16.9505 14.1735C17.8172 14.7335 18.4972 15.5468 18.9905 16.6135C19.4839 17.6802 19.7305 18.9735 19.7305 20.4935C19.7305 22.0135 19.4839 23.3068 18.9905 24.3735C18.4972 25.4402 17.8172 26.2535 16.9505 26.8135C16.0839 27.3735 15.1105 27.6535 14.0305 27.6535ZM14.0305 25.8735C14.7639 25.8735 15.4039 25.6735 15.9505 25.2735C16.5105 24.8735 16.9439 24.2735 17.2505 23.4735C17.5705 22.6735 17.7305 21.6802 17.7305 20.4935C17.7305 19.3068 17.5705 18.3135 17.2505 17.5135C16.9439 16.7135 16.5105 16.1135 15.9505 15.7135C15.4039 15.3135 14.7639 15.1135 14.0305 15.1135C13.2972 15.1135 12.6505 15.3135 12.0905 15.7135C11.5305 16.1135 11.0905 16.7135 10.7705 17.5135C10.4639 18.3135 10.3105 19.3068 10.3105 20.4935C10.3105 21.6802 10.4639 22.6735 10.7705 23.4735C11.0905 24.2735 11.5305 24.8735 12.0905 25.2735C12.6505 25.6735 13.2972 25.8735 14.0305 25.8735Z" fill="#2454E9" data-v-77aa7137=""></path></svg>