<svg xmlns:xlink="http://www.w3.org/1999/xlink" xmlns="http://www.w3.org/2000/svg" width="40" height="40" viewBox="0 0 40 40" fill="none" data-v-77aa7137=""><path d="M35.1329 14.3002V25.7002C35.1329 27.5668 34.1329 29.3002 32.5163 30.2502L22.6163 35.9669C20.9996 36.9002 18.9996 36.9002 17.3663 35.9669L7.46628 30.2502C5.84961 29.3169 4.84961 27.5835 4.84961 25.7002V14.3002C4.84961 12.4336 5.84961 10.7002 7.46628 9.75015L17.3663 4.0335C18.9829 3.10016 20.9829 3.10016 22.6163 4.0335L32.5163 9.75015C34.1329 10.7002 35.1329 12.4169 35.1329 14.3002Z" stroke="#2454E9" stroke-width="2.5px" stroke-linecap="round" stroke-linejoin="round" data-v-77aa7137="" fill="none"></path><path d="M20.0005 18.3335C22.1452 18.3335 23.8839 16.5949 23.8839 14.4502C23.8839 12.3054 22.1452 10.5669 20.0005 10.5669C17.8558 10.5669 16.1172 12.3054 16.1172 14.4502C16.1172 16.5949 17.8558 18.3335 20.0005 18.3335Z" stroke="#2454E9" stroke-width="2.5px" stroke-linecap="round" stroke-linejoin="round" data-v-77aa7137="" fill="none"></path><path d="M26.6673 27.7667C26.6673 24.7667 23.684 22.3335 20.0007 22.3335C16.3173 22.3335 13.334 24.7667 13.334 27.7667" stroke="#2454E9" stroke-width="2.5px" stroke-linecap="round" stroke-linejoin="round" data-v-77aa7137="" fill="none"></path></svg>