<svg width="48" height="48" viewBox="0 0 48 48" fill="none" xmlns="http://www.w3.org/2000/svg">
<path d="M38.87 8.13H9.13C7.80392 8.13 6.53215 8.65679 5.59447 9.59447C4.65679 10.5322 4.13 11.8039 4.13 13.13V34.87C4.13 36.1961 4.65679 37.4679 5.59447 38.4055C6.53215 39.3432 7.80392 39.87 9.13 39.87H38.87C40.1961 39.87 41.4679 39.3432 42.4055 38.4055C43.3432 37.4679 43.87 36.1961 43.87 34.87V13.13C43.87 11.8039 43.3432 10.5322 42.4055 9.59447C41.4679 8.65679 40.1961 8.13 38.87 8.13ZM9.13 10.13H38.87C39.6269 10.1283 40.3561 10.4147 40.9095 10.931C41.463 11.4473 41.7992 12.1548 41.85 12.91C36.91 15.55 31.95 18.17 26.99 20.81C26.3201 21.2324 25.6099 21.5875 24.87 21.87C24.2898 21.9849 23.6918 21.9747 23.1159 21.8402C22.5399 21.7057 21.9993 21.45 21.53 21.09C18.69 19.59 15.85 18.07 13.03 16.57C10.75 15.37 8.43 14.15 6.15 12.93C6.19592 12.1713 6.53004 11.4588 7.084 10.9383C7.63796 10.4178 8.36988 10.1286 9.13 10.13ZM41.87 34.87C41.87 35.6657 41.5539 36.4287 40.9913 36.9913C40.4287 37.5539 39.6657 37.87 38.87 37.87H9.13C8.33436 37.87 7.57129 37.5539 7.00868 36.9913C6.44608 36.4287 6.13 35.6657 6.13 34.87V15.2C10.85 17.68 15.55 20.2 20.27 22.7C21.1131 23.2175 22.021 23.621 22.97 23.9C24.3588 24.1262 25.7822 23.8344 26.97 23.08C29.87 21.56 32.75 20.02 35.65 18.5C37.73 17.38 39.79 16.3 41.87 15.2V34.87Z" fill="#2454E9"/>
</svg>
