<svg width="40" height="40" viewBox="0 0 40 40" fill="none" xmlns="http://www.w3.org/2000/svg">
<path fill-rule="evenodd" clip-rule="evenodd" d="M24.5962 13.128C24.711 13.1918 24.8121 13.2776 24.8937 13.3805C24.9753 13.4834 25.0358 13.6014 25.0719 13.7276C25.1079 13.8539 25.1187 13.9861 25.1037 14.1165C25.0886 14.247 25.048 14.3732 24.9842 14.488L19.4302 24.488C19.3664 24.6028 19.2806 24.7039 19.1777 24.7855C19.0748 24.8671 18.9568 24.9276 18.8305 24.9637C18.7043 24.9997 18.5721 25.0105 18.4416 24.9955C18.3112 24.9804 18.185 24.9398 18.0702 24.876C17.9554 24.8122 17.8543 24.7264 17.7727 24.6235C17.6911 24.5206 17.6306 24.4026 17.5945 24.2764C17.5585 24.1501 17.5477 24.0179 17.5627 23.8875C17.5778 23.757 17.6184 23.6308 17.6822 23.516L23.2362 13.516C23.3 13.4012 23.3858 13.3001 23.4887 13.2185C23.5916 13.1369 23.7095 13.0764 23.8358 13.0403C23.9621 13.0043 24.0943 12.9935 24.2247 13.0085C24.3552 13.0236 24.4814 13.0642 24.5962 13.128Z" fill="#2454E9"/>
<path fill-rule="evenodd" clip-rule="evenodd" d="M12.2201 18.9319C12.3858 18.7253 12.6267 18.5929 12.8899 18.5636C13.1531 18.5344 13.4172 18.6107 13.6241 18.7759L19.1801 23.2199C19.3873 23.3857 19.5201 23.627 19.5493 23.8906C19.5786 24.1543 19.5019 24.4188 19.3361 24.6259C19.1704 24.8331 18.9291 24.9659 18.6655 24.9951C18.4018 25.0244 18.1373 24.9477 17.9301 24.7819L12.3761 20.3399C12.2735 20.2579 12.1881 20.1564 12.1248 20.0413C12.0614 19.9263 12.0213 19.7998 12.0068 19.6693C11.9923 19.5387 12.0037 19.4065 12.0403 19.2804C12.0769 19.1542 12.138 19.0365 12.2201 18.9339" fill="#2454E9"/>
<path fill-rule="evenodd" clip-rule="evenodd" d="M8.39612 8.15394C8.07979 8.46912 7.83072 8.84523 7.66399 9.25948C7.49726 9.67373 7.41633 10.1175 7.42612 10.5639C7.44612 11.6639 7.16612 12.8279 6.76012 13.8359C6.35412 14.8459 5.74812 15.8799 4.97212 16.6579C4.35108 17.2804 4.0023 18.1237 4.0023 19.0029C4.0023 19.8822 4.35108 20.7255 4.97212 21.3479C6.39212 22.7699 7.38412 25.0939 7.42612 27.1059C7.44191 27.9451 7.77611 28.7469 8.361 29.3489C8.94589 29.9509 9.73774 30.308 10.5761 30.3479C11.6761 30.4019 12.8341 30.7359 13.8501 31.1879C14.8641 31.6379 15.8881 32.2719 16.6661 33.0499C17.2885 33.671 18.1319 34.0198 19.0111 34.0198C19.8904 34.0198 20.7337 33.671 21.3561 33.0499C22.1341 32.2719 23.1561 31.6379 24.1721 31.1859C25.1881 30.7359 26.3461 30.4019 27.4461 30.3479C28.2847 30.3085 29.0768 29.9515 29.6618 29.3494C30.2468 28.7473 30.5808 27.9453 30.5961 27.1059C30.6361 25.0939 31.6281 22.7699 33.0501 21.3459C33.6705 20.7236 34.0189 19.8807 34.0189 19.0019C34.0189 18.1232 33.6705 17.2803 33.0501 16.6579C32.2721 15.8799 31.6681 14.8459 31.2621 13.8379C30.8541 12.8279 30.5741 11.6619 30.5961 10.5639C30.6056 10.1174 30.5244 9.6735 30.3573 9.25924C30.1902 8.84498 29.9408 8.46896 29.6241 8.15394C29.297 7.82511 28.9041 7.56894 28.4713 7.40214C28.0385 7.23535 27.5753 7.16168 27.1121 7.18594C25.1201 7.28594 22.7661 6.38194 21.3561 4.97194C20.7337 4.35091 19.8904 4.00213 19.0111 4.00213C18.1319 4.00213 17.2885 4.35091 16.6661 4.97194C15.2561 6.38194 12.9021 7.28594 10.9101 7.18594C10.4466 7.1614 9.98304 7.23493 9.54984 7.40173C9.11664 7.56853 8.72351 7.82485 8.39612 8.15394ZM5.42612 10.5999C5.45612 12.1159 4.63012 14.1699 3.55612 15.2419C2.56014 16.2394 2.00073 17.5914 2.00073 19.0009C2.00073 20.4105 2.56014 21.7625 3.55612 22.7599C4.61612 23.8179 5.39612 25.6499 5.42612 27.1439C5.45412 28.4679 5.97212 29.7839 6.98212 30.7939C7.91395 31.7277 9.1605 32.2804 10.4781 32.3439C12.0601 32.4239 14.1321 33.3419 15.2521 34.4639C16.2496 35.4599 17.6015 36.0193 19.0111 36.0193C20.4207 36.0193 21.7727 35.4599 22.7701 34.4639C23.8901 33.3419 25.9621 32.4239 27.5441 32.3439C28.8617 32.2804 30.1083 31.7277 31.0401 30.7939C32.0111 29.8243 32.5682 28.5159 32.5941 27.1439C32.6261 25.6499 33.4061 23.8179 34.4641 22.7599C35.4601 21.7625 36.0195 20.4105 36.0195 19.0009C36.0195 17.5914 35.4601 16.2394 34.4641 15.2419C33.3921 14.1699 32.5641 12.1159 32.5961 10.6019C32.6115 9.88584 32.4815 9.17406 32.214 8.50959C31.9466 7.84513 31.5473 7.24176 31.0401 6.73594C30.5148 6.20922 29.8844 5.799 29.1901 5.53195C28.4958 5.2649 27.753 5.14701 27.0101 5.18594C25.5821 5.25794 23.7801 4.56594 22.7701 3.55394C21.7726 2.55736 20.4202 1.99756 19.0101 1.99756C17.6001 1.99756 16.2477 2.55736 15.2501 3.55394C14.2421 4.56594 12.4381 5.25794 11.0101 5.18594C10.2676 5.14729 9.52516 5.26532 8.8312 5.53236C8.13723 5.7994 7.50722 6.20948 6.98212 6.73594C6.47523 7.24153 6.07602 7.84457 5.80859 8.50867C5.54117 9.17277 5.41106 9.88417 5.42612 10.5999Z" fill="#2454E9"/>
</svg>
