<svg xmlns:xlink="http://www.w3.org/1999/xlink" xmlns="http://www.w3.org/2000/svg" width="48" height="48" viewBox="0 0 48 48" fill="none" class="mr-4"><g clip-path="url(#clip0_5298_716)" fill="none"><path d="M16.5005 25.2884L33.4242 40.1252C33.6192 40.2972 33.8555 40.4156 34.11 40.4688C34.3644 40.5219 34.6284 40.508 34.8759 40.4284C35.1233 40.3488 35.3459 40.2062 35.5217 40.0147C35.6975 39.8232 35.8205 39.5893 35.8786 39.3359L43.5005 6.22899C43.5079 6.19579 43.5062 6.1612 43.4955 6.12891C43.4848 6.09662 43.4655 6.06786 43.4396 6.0457C43.4138 6.02355 43.3825 6.00883 43.3489 6.00314C43.3154 5.99744 43.2809 6.00098 43.2492 6.01337L5.25049 20.884C5.01459 20.9748 4.81451 21.1396 4.68028 21.3538C4.54605 21.568 4.48491 21.8199 4.50604 22.0718C4.52717 22.3237 4.62943 22.5619 4.79747 22.7507C4.96551 22.9396 5.19026 23.0688 5.43799 23.119L16.5005 25.2884Z" stroke="#FEFEFE" stroke-width="2px" stroke-linecap="round" stroke-linejoin="round" fill="none"></path><path d="M16.5 25.2883L43.3894 6.01709" stroke="#FEFEFE" stroke-width="2px" stroke-linecap="round" stroke-linejoin="round" fill="none"></path><path d="M24.8194 32.5837L19.08 38.5387C18.8726 38.7539 18.6057 38.9022 18.3135 38.9646C18.0212 39.0271 17.717 39.0008 17.4398 38.8892C17.1626 38.7776 16.925 38.5857 16.7576 38.3382C16.5901 38.0907 16.5004 37.7988 16.5 37.5V25.2881" stroke="#FEFEFE" stroke-width="2px" stroke-linecap="round" stroke-linejoin="round" fill="none"></path></g><defs><clipPath id="clip0_5298_716"><rect width="48" height="48" fill="white"></rect></clipPath></defs></svg>