<svg xmlns:xlink="http://www.w3.org/1999/xlink" xmlns="http://www.w3.org/2000/svg" width="48" height="48" viewBox="0 0 48 48" fill="none" class="mr-4"><g clip-path="url(#clip0_5298_711)" fill="none"><path d="M30.8231 27.2515C31.0309 27.1132 31.2698 27.029 31.5183 27.0064C31.7668 26.9838 32.017 27.0236 32.2463 27.1221L41.0888 31.084C41.3868 31.2113 41.6355 31.4318 41.7977 31.7123C41.96 31.9929 42.027 32.3184 41.9888 32.6402C41.6975 34.8172 40.6254 36.8142 38.972 38.26C37.3186 39.7058 35.1964 40.5019 33 40.5002C26.237 40.5002 19.751 37.8136 14.9688 33.0314C10.1866 28.2492 7.5 21.7632 7.5 15.0002C7.49832 12.8038 8.2944 10.6816 9.74018 9.0282C11.186 7.3748 13.183 6.30276 15.36 6.01145C15.6818 5.97322 16.0074 6.04024 16.2879 6.20248C16.5684 6.36472 16.7889 6.61346 16.9163 6.91145L20.8781 15.7615C20.9755 15.9888 21.0151 16.2366 20.9935 16.4829C20.9719 16.7293 20.8898 16.9664 20.7544 17.1733L16.7475 21.9377C16.6054 22.1522 16.5213 22.3999 16.5036 22.6565C16.4858 22.9132 16.535 23.1701 16.6463 23.4021C18.1969 26.5765 21.4781 29.8183 24.6619 31.354C24.8951 31.4647 25.1532 31.5128 25.4106 31.4934C25.6681 31.474 25.916 31.3878 26.13 31.2433L30.8231 27.2515Z" stroke="#FEFEFE" stroke-width="2px" stroke-linecap="round" stroke-linejoin="round" fill="none"></path></g><defs><clipPath id="clip0_5298_711"><rect width="48" height="48" fill="white"></rect></clipPath></defs></svg>