<svg width="80" height="80" viewBox="0 0 80 80" fill="none" xmlns="http://www.w3.org/2000/svg">
<path fill-rule="evenodd" clip-rule="evenodd" d="M59.9998 60C61.7679 60 63.4636 59.2976 64.7139 58.0474C65.9641 56.7971 66.6665 55.1014 66.6665 53.3333L66.6665 43.3333C66.6665 41.5652 65.9641 39.8695 64.7139 38.6193C63.4636 37.369 61.7679 36.6667 59.9998 36.6667L49.9998 36.6667C49.9998 34.0145 51.0534 31.471 52.9288 29.5956C54.8041 27.7202 57.3477 26.6667 59.9998 26.6667L63.3332 26.6667C64.2172 26.6667 65.0651 26.3155 65.6902 25.6904C66.3153 25.0652 66.6665 24.2174 66.6665 23.3333C66.6665 22.4493 66.3153 21.6014 65.6902 20.9763C65.0651 20.3512 64.2172 20 63.3332 20L59.9998 20C55.5796 20 51.3403 21.7559 48.2147 24.8816C45.0891 28.0072 43.3332 32.2464 43.3332 36.6667L43.3332 53.3333C43.3332 55.1014 44.0355 56.7971 45.2858 58.0474C46.536 59.2976 48.2317 60 49.9998 60L59.9998 60ZM29.9998 60C31.7679 60 33.4636 59.2976 34.7139 58.0474C35.9641 56.7971 36.6665 55.1014 36.6665 53.3333L36.6665 43.3333C36.6665 41.5652 35.9641 39.8695 34.7139 38.6193C33.4636 37.369 31.7679 36.6667 29.9998 36.6667L19.9998 36.6667C19.9998 34.0145 21.0534 31.471 22.9288 29.5956C24.8041 27.7202 27.3477 26.6667 29.9998 26.6667L33.3332 26.6667C34.2172 26.6667 35.0651 26.3155 35.6902 25.6904C36.3153 25.0652 36.6665 24.2174 36.6665 23.3333C36.6665 22.4493 36.3153 21.6014 35.6902 20.9763C35.0651 20.3512 34.2172 20 33.3332 20L29.9998 20C25.5796 20 21.3403 21.7559 18.2147 24.8816C15.0891 28.0072 13.3332 32.2464 13.3332 36.6667L13.3332 53.3333C13.3332 55.1014 14.0355 56.7971 15.2858 58.0474C16.536 59.2976 18.2317 60 19.9998 60L29.9998 60Z" fill="#2454E9"/>
</svg>
